<svg xmlns="http://www.w3.org/2000/svg" width="174" height="68" viewBox="0 0 174 68">
    <defs>
        <linearGradient id="8oei9gzsba" x1="50%" x2="50%" y1="0%" y2="89.76%">
            <stop offset="0%" stop-color="#004CFF"/>
            <stop offset="100%" stop-color="#090089"/>
        </linearGradient>
        <linearGradient id="iexu6hcmjb" x1="50%" x2="50%" y1="0%" y2="89.76%">
            <stop offset="0%" stop-color="#004CFF"/>
            <stop offset="100%" stop-color="#090089"/>
        </linearGradient>
    </defs>
    <g fill="none" fill-rule="evenodd">
        <g>
            <g>
                <g>
                    <g>
                        <g>
                            <g>
                                <path fill="url(#8oei9gzsba)" d="M31.732 5.402c3.51 3.409 5.69 8.182 5.69 13.466 0 4.015-4.65 9.39-13.952 16.129h-9.088C4.794 28.259 0 22.883 0 18.868 0 13.696 2.09 9.012 5.47 5.62l26.262-.217z" transform="translate(-96 -26) translate(96 26) translate(0 1)"/>
                                <path fill="url(#iexu6hcmjb)" d="M31.779 5.446c-2.166.947-3.853 1.765-5.06 2.453-2.168 1.236-4.88 3.247-8.137 6.033C14.857 11.14 11.916 9.13 9.76 7.9c-1.103-.628-2.552-1.368-4.35-2.218C8.78 2.177 13.494 0 18.71 0c5.098 0 9.716 2.08 13.069 5.446z" transform="translate(-96 -26) translate(96 26) translate(0 1)"/>
                                <path fill="#004DFF" fill-rule="nonzero" d="M13.409 26.324c5.59 4.092 10.06 13.186 10.06 21.627v18H13.86v-18c0-5.73-2.581-10.855-6.644-14.28C2.825 30.258 0 24.924 0 18.93c5.212 2.201 9.682 4.666 13.409 7.395z" transform="translate(-96 -26) translate(96 26) translate(0 1)"/>
                                <path fill="#004DFF" fill-rule="nonzero" d="M27.361 26.324c5.59 4.092 10.061 13.186 10.061 21.627v18h-9.61v-18c0-5.73-2.58-10.855-6.643-14.28-4.392-3.414-7.217-8.748-7.217-14.742 5.213 2.201 9.682 4.666 13.41 7.395z" transform="translate(-96 -26) translate(96 26) translate(0 1) matrix(-1 0 0 1 51.374 0)"/>
                                <path fill="#004DFF" d="M20.952 54.786L30.423 54.786 30.423 62.409 20.952 62.409z" transform="translate(-96 -26) translate(96 26) translate(0 1) rotate(-90 25.687 58.598)"/>
                            </g>
                            <path fill="#0618AE" d="M97.707 42.345h-7.072v7.21h7.192v4.524h-7.22v7.47h7.834v4.447H85.292V37.916H98.288v4.428h-.58zM53.477 65.42V42.395h-4.148V37.93h13.586V42.37h-4.13V66h-5.308v-.58zm22.596-.016V54.132h-5.27v11.86H65.525V37.93h5.246v11.606h5.283V37.93h5.307V65.984h-5.289v-.58zM70.152 31.01h-.676l.103-.668 2.915-18.964 1.221-7.945.075-.491h9.134l.076.49.687 4.464 3.452 22.442.103.668h-5.209l-.077-.49-.129-.815-.97-6.178h-5.015l-.682 4.368-.41 2.629-.077.49H70.152zM78.372 7.4h-.034l-.793 5.136-.99 6.41h3.608L78.373 7.4zM54.057 31.008h-.58V2.927l.562-.017c.02-.001 1.987-.062 4.18-.062 2.061 0 3.648.052 4.717.155 1.951.187 3.293.692 4.224 1.59.93.895 1.482 2.215 1.74 4.152.288 2.155.236 4.232-.153 6.173-.59 2.938-2.45 4.567-5.527 4.84-.935.084-1.84.09-2.8.098-.555.004-1.123.008-1.7.028v11.124h-4.663zm5.33-15.629c.393.008.765.015 1.14.015.546 0 .994-.016 1.407-.05 1.043-.084 1.491-.521 1.653-1.612.233-1.582.242-3.23.027-5.038-.099-.826-.544-.975-.69-1.024-.76-.255-1.54-.29-2.201-.29-.285 0-.579.008-.863.015-.293.007-.597.015-.9.015-.07 0-.14 0-.207-.002v7.96l.633.011zm63.9 5.691c.239 2.074.098 4.035-.418 5.828-.675 2.348-2.294 3.778-4.81 4.25-.807.152-1.62.229-2.421.229-.727 0-1.46-.064-2.18-.188-2.77-.48-4.538-2.113-5.253-4.854-.427-1.636-.45-3.292-.437-4.986l.005-.575h5.299v.58l-.001.454c-.001.333-.002.649.001.97.008.918.044 1.89.384 2.797.355.945.93 1.297 2.125 1.297h.067c1.177-.014 1.756-.391 2.065-1.345.375-1.157.473-2.394.29-3.678-.13-.913-.712-1.58-1.888-2.159-.848-.418-1.75-.788-2.621-1.146l-.528-.218c-2.206-.913-3.604-2.06-4.398-3.608-.74-1.443-.954-3.268-.674-5.745.061-.54.189-1.128.39-1.797.66-2.199 2.107-3.616 4.301-4.214.976-.265 1.976-.4 2.972-.4.938 0 1.893.12 2.836.355 2.32.579 3.838 2.054 4.513 4.384.375 1.292.433 3.849.435 3.957l.012.592H118.158l-.026-.553c0-.014-.066-1.441-.15-2.12-.177-1.454-1.387-2.214-2.49-2.214-.538 0-1.067.17-1.53.494-.09.063-.17.13-.238.203-.54.576-.784 1.651-.64 2.806.14 1.13.629 2.088 1.274 2.502.66.423 1.38.73 2.142 1.055.323.138.656.28.984.432.935.433 1.845.87 2.692 1.46 1.817 1.265 2.863 3 3.111 5.155zm-18.559.056c.237 2.102.098 3.984-.425 5.755-.665 2.256-2.153 3.66-4.422 4.173-.952.216-1.907.325-2.838.325-.891 0-1.785-.1-2.657-.297-2.352-.531-3.914-1.993-4.641-4.345-.569-1.839-.595-3.677-.538-5.39l.018-.56h5.214l.033.545c.026.43.031.857.036 1.27.009.718.017 1.397.127 2.067.244 1.489 1.01 2.244 2.275 2.244.25 0 .522-.03.807-.088.687-.14 1.125-.49 1.339-1.074.457-1.251.568-2.617.33-4.06-.139-.833-.716-1.453-1.871-2.011-.666-.322-1.365-.619-2.042-.906-.499-.211-1.014-.43-1.518-.66-.627-.284-1.171-.578-1.665-.9-1.552-1.009-2.518-2.397-2.87-4.127-.414-2.04-.299-4.088.342-6.085.734-2.285 2.372-3.697 4.87-4.199.784-.157 1.58-.237 2.368-.237v.29-.29c.798 0 1.604.082 2.395.243 2.609.533 4.288 2.1 4.99 4.657.338 1.228.396 3.692.398 3.796l.013.593h-5.197l-.03-.548c-.001-.012-.068-1.207-.116-1.787-.133-1.593-1.016-2.545-2.361-2.545-.431 0-.89.1-1.367.296-.572.234-.903.687-1.076 1.466-.161.73-.202 1.524-.128 2.498.053.69.456 1.232 1.308 1.762.673.418 1.398.73 2.166 1.059.34.145.69.296 1.035.456.824.383 1.695.803 2.498 1.351 1.874 1.28 2.951 3.052 3.2 5.263z" transform="translate(-96 -26) translate(96 26) translate(0 1)"/>
                            <path fill="#004DFF" d="M169.864 51.063c1.748 1.326 2.734 3.091 2.93 5.248.138 1.523.078 3.031-.178 4.482-.559 3.164-2.297 4.88-5.472 5.402-.675.11-1.362.167-2.044.167-.721 0-1.455-.063-2.182-.187-2.72-.466-4.48-2.074-5.232-4.78-.472-1.7-.484-3.435-.457-5.066l.01-.57h5.223l.028.55.04.768c.031.637.064 1.296.104 1.942.019.296.057.582.112.849.284 1.36 1.019 2.048 2.184 2.048.298 0 .623-.046.966-.137.658-.175 1.065-.572 1.28-1.25.31-.98.421-2.082.341-3.369-.051-.829-.444-1.497-1.2-2.04-.694-.5-1.482-.817-2.316-1.153-.25-.1-.508-.205-.763-.313l-.225-.097c-.933-.397-1.899-.809-2.778-1.415-1.623-1.116-2.59-2.646-2.876-4.545-.251-1.67-.167-3.343.25-4.973.67-2.619 2.308-4.228 4.867-4.783.875-.19 1.751-.285 2.604-.285.98 0 1.955.126 2.9.375 2.093.552 3.53 1.877 4.272 3.94.466 1.296.65 2.694.58 4.397l-.022.555H167.633l-.036-.54c-.016-.23-.029-.456-.042-.681-.028-.485-.055-.943-.101-1.402-.152-1.48-1.373-2.256-2.502-2.256-.544 0-1.076.175-1.539.507-.263.189-.431.408-.514.67-.105.33-.21.681-.247 1.01-.32 2.843-.028 3.354 2.612 4.56.325.148.66.295.986.436 1.223.533 2.488 1.083 3.614 1.936zM123.02 37.909l-.285.779-4.726 12.909 4.73 13.647.266.769h-5.439l-.138-.384-2.207-6.14-1.94-5.4c-.081-.007-.17-.01-.273-.01-.098 0-.197.002-.298.005l-.042.001v11.913h-5.314V37.924H112.636v11.67c.073.006.15.01.229.01.127 0 .259-.008.395-.02l2.172-6.047 1.884-5.245.137-.383H123.02zm7.76 23.64h7.833V65.998h-13.15V37.93h13.044V42.38h-7.733v7.178h7.213v4.528h-7.207v7.465zm24.364-23.634h.827l-.282.777-.23.64c-.165.46-.32.893-.486 1.333-1.473 3.896-4.564 12.27-4.932 13.267v12.07H144.832V53.917l-5.75-15.2-.297-.785h5.517l.141.376 2.454 6.542.485 1.294 2.977-7.855.142-.374H155.144z" transform="translate(-96 -26) translate(96 26) translate(0 1)"/>
                        </g>
                    </g>
                </g>
            </g>
        </g>
    </g>
</svg>
